<svg width="47" height="50" viewBox="0 0 47 50" fill="none" xmlns="http://www.w3.org/2000/svg">
<path d="M11.4248 11.9171C11.4299 14.2679 12.1317 16.5644 13.4414 18.5164C14.7511 20.4685 16.6101 21.9886 18.7834 22.8847C20.9566 23.7807 23.3468 24.0125 25.6517 23.5508C27.9567 23.089 30.0731 21.9544 31.7335 20.2904C33.3939 18.6264 34.5239 16.5075 34.9806 14.2016C35.4373 11.8956 35.2003 9.506 34.2996 7.33468C33.3988 5.16335 31.8746 3.30772 29.9197 2.00224C27.9648 0.696763 25.6668 5.57895e-06 23.316 0C20.1599 0.00686116 17.1354 1.26544 14.9061 3.49959C12.6768 5.73374 11.4248 8.76098 11.4248 11.9171ZM30.0259 11.9171C30.0207 13.2431 29.6229 14.5378 28.8825 15.6378C28.1421 16.7378 27.0924 17.5938 25.8659 18.0977C24.6394 18.6016 23.291 18.7308 21.9912 18.469C20.6913 18.2071 19.4981 17.5661 18.5623 16.6266C17.6265 15.6872 16.9901 14.4916 16.7333 13.1907C16.4764 11.8899 16.6108 10.5421 17.1194 9.31751C17.628 8.09295 18.4881 7.04654 19.5909 6.31039C20.6938 5.57424 21.99 5.18136 23.316 5.18135C24.1993 5.18135 25.074 5.35576 25.8898 5.69458C26.7055 6.0334 27.4464 6.52996 28.0698 7.15578C28.6932 7.78159 29.1869 8.52434 29.5226 9.34141C29.8582 10.1585 30.0293 11.0338 30.0259 11.9171Z" fill="#185ADB"/>
<path d="M32.6166 27.9534H14.0156C10.2984 27.9534 6.73349 29.43 4.10506 32.0584C1.47664 34.6869 1.78273e-10 38.2518 1.78271e-10 41.9689V43.1865C-1.303e-05 44.9891 0.714277 46.7182 1.98645 47.9953C3.25863 49.2723 4.98502 49.9932 6.78757 50H39.8446C41.6472 49.9932 43.3736 49.2723 44.6457 47.9953C45.9179 46.7182 46.6322 44.9891 46.6322 43.1865V41.8653C46.6048 38.1661 45.1161 34.6278 42.4907 32.0217C39.8652 29.4157 36.3159 27.9533 32.6166 27.9534ZM41.4508 43.1865C41.4509 43.615 41.2825 44.0262 40.982 44.3316C40.6815 44.6369 40.273 44.8119 39.8446 44.8187H6.78757C6.35921 44.8119 5.9507 44.6369 5.6502 44.3316C5.34969 44.0262 5.1813 43.615 5.18135 43.1865V41.8653C5.18135 39.5223 6.1121 37.2753 7.76883 35.6186C9.42557 33.9618 11.6726 33.0311 14.0156 33.0311H32.6166C33.7855 33.031 34.9428 33.2629 36.0214 33.7133C37.1001 34.1638 38.0786 34.8238 38.9003 35.6551C39.722 36.4864 40.3705 37.4726 40.8083 38.5564C41.2462 39.6402 41.4645 40.8001 41.4508 41.9689V43.1865Z" fill="#0A1931"/>
</svg>
