<svg width="80" height="80" viewBox="0 0 80 80" fill="none" xmlns="http://www.w3.org/2000/svg">
<rect width="80" height="80" rx="10" fill="#FEFFC4"/>
<path d="M19.1076 60.4694H60.9531C62.0264 60.4694 63.0557 60.0431 63.8147 59.2841C64.5736 58.5252 65 57.4958 65 56.4225V28.9235C64.9925 28.0904 64.7281 27.2799 64.2428 26.6027C63.7575 25.9255 63.075 25.4145 62.2886 25.1396C62.2886 25.1396 62.2886 24.9575 62.2886 24.8766V24.0469C62.2886 22.9736 61.8622 21.9443 61.1032 21.1853C60.3443 20.4264 59.3149 20 58.2416 20H46.1008C45.0275 20 43.9981 20.4264 43.2391 21.1853C42.4802 21.9443 42.0538 22.9736 42.0538 24.0469V24.8766H31.9365C31.9365 24.8766 31.9365 24.7552 31.9365 24.6945V24.2291C31.9365 23.1557 31.5101 22.1264 30.7511 21.3674C29.9922 20.6085 28.9628 20.1821 27.8895 20.1821H21.4346C20.3613 20.1821 19.332 20.6085 18.573 21.3674C17.8141 22.1264 17.3877 23.1557 17.3877 24.2291V24.6945C17.3778 24.8764 17.3778 25.0588 17.3877 25.2408C16.6777 25.56 16.0747 26.0772 15.6512 26.7304C15.2277 27.3836 15.0016 28.145 15 28.9235V56.4225C14.9999 56.9591 15.1066 57.4903 15.3138 57.9853C15.5209 58.4803 15.8245 58.9292 16.2067 59.3058C16.589 59.6824 17.0423 59.9792 17.5403 60.179C18.0383 60.3788 18.5711 60.4775 19.1076 60.4694ZM46.1008 24.0469H58.2416V24.8766H46.1008V24.0469ZM21.4346 24.2291H27.7276V24.6945H21.4346V24.2291ZM19.1076 28.9235H60.9531V56.4225H19.1076V28.9235Z" fill="#FCFF4F"/>
<path d="M40.0303 32.748C38.0653 32.748 36.1444 33.3307 34.5106 34.4224C32.8767 35.5141 31.6033 37.0658 30.8513 38.8812C30.0993 40.6967 29.9026 42.6943 30.2859 44.6216C30.6693 46.5488 31.6155 48.3191 33.005 49.7086C34.3945 51.098 36.1648 52.0443 38.092 52.4276C40.0193 52.811 42.0169 52.6142 43.8323 51.8623C45.6478 51.1103 47.1994 49.8369 48.2911 48.203C49.3828 46.5692 49.9655 44.6483 49.9655 42.6833C49.9655 40.0483 48.9188 37.5212 47.0556 35.658C45.1923 33.7948 42.6653 32.748 40.0303 32.748ZM40.0303 48.5716C38.8657 48.5716 37.7272 48.2263 36.7589 47.5792C35.7906 46.9322 35.0359 46.0126 34.5902 44.9367C34.1445 43.8607 34.0279 42.6768 34.2551 41.5345C34.4823 40.3923 35.0431 39.3431 35.8666 38.5196C36.6901 37.6961 37.7393 37.1353 38.8815 36.9081C40.0238 36.6809 41.2077 36.7975 42.2836 37.2432C43.3596 37.6889 44.2792 38.4436 44.9262 39.4119C45.5732 40.3803 45.9186 41.5187 45.9186 42.6833C45.9186 44.245 45.2982 45.7427 44.1939 46.847C43.0897 47.9512 41.592 48.5716 40.0303 48.5716Z" fill="#FCFF4F"/>
</svg>
