<svg xmlns="http://www.w3.org/2000/svg" xmlns:xlink="http://www.w3.org/1999/xlink" viewBox="0 0 24 24" fill="#FFFFFF">
  <path d="M11.984375 4 A 1.0001 1.0001 0 0 0 11.292969 4.2929688L3.2929688 12.292969 A 1.0001 1.0001 0 1 0 4.7070312 13.707031L12 6.4140625L19.292969 13.707031 A 1.0001 1.0001 0 1 0 20.707031 12.292969L12.707031 4.2929688 A 1.0001 1.0001 0 0 0 11.984375 4 z M 11.984375 10 A 1.0001 1.0001 0 0 0 11.292969 10.292969L3.2929688 18.292969 A 1.0001 1.0001 0 1 0 4.7070312 19.707031L12 12.414062L19.292969 19.707031 A 1.0001 1.0001 0 1 0 20.707031 18.292969L12.707031 10.292969 A 1.0001 1.0001 0 0 0 11.984375 10 z" fill="#FFFFFF" />
</svg>