<?xml version="1.0" standalone="no"?>
<!DOCTYPE svg PUBLIC "-//W3C//DTD SVG 20010904//EN"
 "http://www.w3.org/TR/2001/REC-SVG-20010904/DTD/svg10.dtd">
<svg version="1.0" xmlns="http://www.w3.org/2000/svg"
 width="512.000000pt" height="512.000000pt" viewBox="0 0 512.000000 512.000000"
 preserveAspectRatio="xMidYMid meet">

<g transform="translate(0.000000,512.000000) scale(0.100000,-0.100000)"
fill="#000000" stroke="none">
<path d="M1210 4220 c-9 -5 -6 -10 9 -15 35 -11 15 -20 -47 -21 -122 -4 -282
-17 -379 -33 -36 -5 -53 -5 -53 3 0 6 -7 0 -16 -12 -8 -12 -22 -22 -30 -22 -8
0 -13 -4 -10 -9 4 -5 0 -12 -6 -14 -8 -3 -5 -6 6 -6 13 -1 17 -6 13 -21 -3
-12 2 -27 11 -36 15 -15 14 -16 -5 -10 -13 4 -25 1 -33 -9 -11 -13 -10 -18 6
-30 17 -13 18 -14 2 -15 -10 0 -18 5 -18 11 0 5 -5 7 -12 3 -6 -4 -8 -3 -5 4
8 12 -2 42 -14 42 -4 0 -7 -6 -5 -12 15 -49 16 -70 3 -65 -7 3 -14 -1 -14 -9
0 -7 4 -11 8 -8 4 2 14 -3 23 -11 9 -10 17 -11 21 -5 4 6 11 7 17 4 7 -4 7 -9
-1 -13 -7 -5 -4 -13 9 -24 12 -10 20 -12 20 -5 0 6 3 8 8 4 7 -7 8 -11 11 -37
1 -8 7 -7 18 2 9 8 14 9 10 3 -14 -24 53 -58 81 -41 7 5 14 2 18 -7 3 -9 10
-13 15 -10 5 3 9 1 9 -5 0 -6 7 -8 15 -5 10 4 15 0 15 -13 0 -15 8 -20 33 -21
93 -4 118 -8 136 -24 17 -15 21 -15 42 0 12 8 19 10 15 4 -4 -7 -1 -12 7 -12
8 0 20 -7 27 -15 7 -8 23 -15 35 -15 13 0 26 -7 29 -16 3 -9 2 -12 -5 -9 -5 4
-16 1 -24 -5 -10 -8 -80 -16 -187 -21 -155 -8 -394 -36 -385 -45 2 -2 55 1
118 7 130 12 3460 -26 3584 -41 275 -33 324 -103 325 -463 l0 -137 -42 7 c-55
10 -1380 10 -1553 0 -124 -7 -207 -14 -285 -23 -19 -2 -43 -4 -52 -5 -10 0
-17 -5 -15 -12 5 -27 -237 -34 -1323 -42 -723 -6 -889 -12 -969 -35 -97 -28
-110 -88 -147 -655 -4 -60 -8 -123 -9 -140 -4 -42 -23 -556 -35 -942 -12 -372
-10 -385 57 -401 21 -6 315 -13 653 -16 338 -4 1198 -13 1910 -21 712 -8 1447
-15 1633 -17 l339 -3 23 27 c13 15 26 47 29 70 24 175 42 2833 20 2932 -16 77
-61 132 -129 161 -106 45 -127 45 -1485 60 -712 8 -1332 19 -1377 25 -190 22
-263 51 -409 161 -120 91 -250 150 -284 129z m-480 -110 c0 -5 -8 -10 -17 -10
-15 0 -16 2 -3 10 19 12 20 12 20 0z m380 -370 c0 -5 -4 -10 -10 -10 -5 0 -10
5 -10 10 0 6 5 10 10 10 6 0 10 -4 10 -10z m170 -60 c24 -15 7 -18 -20 -3 -14
7 -18 13 -10 13 8 0 22 -4 30 -10z m3427 -726 c-3 -3 -12 -4 -19 -1 -8 3 -5 6
6 6 11 1 17 -2 13 -5z"/>
<path d="M412 3295 c0 -16 2 -22 5 -12 2 9 2 23 0 30 -3 6 -5 -1 -5 -18z"/>
<path d="M402 3149 c-1 -48 -4 -102 -7 -120 -5 -31 -5 -32 5 -10 6 14 9 67 7
120 l-3 96 -2 -86z"/>
</g>
</svg>
