<svg width="80" height="80" viewBox="0 0 80 80" fill="none" xmlns="http://www.w3.org/2000/svg">
<rect width="80" height="80" rx="10" fill="#FFEEDF"/>
<path fill-rule="evenodd" clip-rule="evenodd" d="M49.5522 33.1694L49.6094 33.0695C50.508 31.4981 51.0223 29.6786 51.0223 27.7329C51.0223 21.7861 46.2015 16.9653 40.2546 16.9653C34.3078 16.9653 29.487 21.7861 29.487 27.7329C29.487 29.0777 29.7326 30.3607 30.1797 31.5423L30.2906 31.8356L30.3226 31.9009L30.3432 31.949C30.4927 32.3 30.6603 32.6415 30.8451 32.9724L30.896 33.0636L37.4391 48.4138C38.4955 50.8923 42.009 50.8914 43.0642 48.4123L49.5522 33.1694ZM27.7701 30.2482C27.6072 29.4351 27.5217 28.594 27.5217 27.7329C27.5217 20.7007 33.2225 15 40.2546 15C47.2868 15 52.9876 20.7007 52.9876 27.7329C52.9876 30.0298 52.3794 32.1846 51.3153 34.0451L44.8724 49.182C43.1389 53.2547 37.3668 53.2562 35.6312 49.1844L29.1291 33.9303C28.9106 33.5389 28.7121 33.1347 28.5351 32.7193L28.2981 32.236L28.3416 32.2378C28.3391 32.2313 28.3367 32.2248 28.3342 32.2183C28.3235 32.1897 28.3128 32.1611 28.3022 32.1324C28.0785 31.5248 27.8998 30.8954 27.7701 30.2482Z" fill="#FFB84E"/>
<path d="M45.8447 28.0434C45.8447 31.1307 43.342 33.6335 40.2547 33.6335C37.1674 33.6335 34.6646 31.1307 34.6646 28.0434C34.6646 24.9561 37.1674 22.4534 40.2547 22.4534C43.342 22.4534 45.8447 24.9561 45.8447 28.0434Z" fill="#FFB84E"/>
<path fill-rule="evenodd" clip-rule="evenodd" d="M40.2547 31.6682C42.2566 31.6682 43.8795 30.0454 43.8795 28.0434C43.8795 26.0415 42.2566 24.4186 40.2547 24.4186C38.2527 24.4186 36.6299 26.0415 36.6299 28.0434C36.6299 30.0454 38.2527 31.6682 40.2547 31.6682ZM40.2547 33.6335C43.342 33.6335 45.8447 31.1307 45.8447 28.0434C45.8447 24.9561 43.342 22.4534 40.2547 22.4534C37.1674 22.4534 34.6646 24.9561 34.6646 28.0434C34.6646 31.1307 37.1674 33.6335 40.2547 33.6335Z" fill="#FFB84E"/>
<path d="M47.7081 40.1562C43.205 34.6587 35.4677 36.6489 32.8013 40.1562L38.5557 55.6638C39.1172 57.1771 41.255 57.1845 41.827 55.6751L47.7081 40.1562Z" fill="#FFB84E"/>
<path fill-rule="evenodd" clip-rule="evenodd" d="M33.9214 40.3504L39.4769 55.322C39.7226 55.9841 40.6579 55.9873 40.9081 55.327L46.581 40.3576C44.611 38.2307 42.0606 37.5466 39.652 37.7583C37.2821 37.9666 35.1443 39.0343 33.9214 40.3504ZM39.4799 35.8006C42.5798 35.5282 45.9786 36.4942 48.4683 39.5336L48.8283 39.9732L42.7459 56.0234C41.8521 58.3818 38.5118 58.3702 37.6344 56.0057L31.6921 39.9916L32.019 39.5616C33.5488 37.5494 36.4251 36.0691 39.4799 35.8006Z" fill="#FFB84E"/>
<path fill-rule="evenodd" clip-rule="evenodd" d="M32.2929 49.0203C32.4223 49.5473 32.1 50.0795 31.5729 50.2089C28.0707 51.0688 25.5215 52.3997 24.1355 53.8129C23.46 54.5016 23.1366 55.1306 23.0203 55.6551C22.9089 56.1577 22.9592 56.6837 23.2405 57.2633C23.8491 58.5175 25.5421 59.9809 28.5602 61.1509C31.5115 62.295 35.2671 62.9726 39.2341 63.0306C43.1993 63.0887 47.0495 62.523 50.1701 61.4591C53.3505 60.3749 55.3157 58.9335 56.1444 57.6101C56.5335 56.9886 56.647 56.4396 56.6036 55.9524C56.5593 55.4548 56.3362 54.8608 55.7856 54.1935C54.6405 52.8054 52.3291 51.4186 48.9539 50.4599C48.4319 50.3116 48.1289 49.7682 48.2772 49.2461C48.4254 48.7241 48.9689 48.4211 49.4909 48.5694C53.0495 49.5802 55.7963 51.1183 57.3016 52.9428C58.0544 53.8553 58.4753 54.8135 58.5611 55.7781C58.647 56.7426 58.398 57.7141 57.81 58.6531C56.6344 60.5306 54.1708 62.1716 50.8042 63.3193C47.4379 64.4669 43.3588 65.0565 39.2054 64.9957C35.0519 64.9349 31.0585 64.2272 27.8498 62.9833C24.6408 61.7393 22.3983 60.0294 21.4724 58.1213C21.0094 57.167 20.8888 56.1901 21.1016 55.2299C21.3144 54.2696 21.8608 53.3255 22.7324 52.4369C24.4752 50.6599 27.4194 49.2051 31.1043 48.3003C31.6313 48.1709 32.1635 48.4932 32.2929 49.0203Z" fill="#FFB84E"/>
</svg>
