<svg width="50" height="50" viewBox="0 0 50 50" fill="none" xmlns="http://www.w3.org/2000/svg">
<path fill-rule="evenodd" clip-rule="evenodd" d="M14.2827 46.1111V48.6111C14.2827 49.3782 14.9045 50 15.6715 50H38.8782C45.0147 50 49.9893 45.0254 49.9893 38.8889V24.881C49.9893 24.1139 49.3675 23.4921 48.6004 23.4921H37.4298V27.381H46.1004V38.8889C46.1004 42.8776 42.8669 46.1111 38.8782 46.1111H37.4298H18.1715H14.2827Z" fill="#0A1931"/>
<path fill-rule="evenodd" clip-rule="evenodd" d="M11.1111 3.88889H22.7143C26.2508 3.88889 29.1936 6.43076 29.8155 9.78718C32.264 11.8239 33.8233 14.893 33.8254 18.3264V11.1111C33.8254 4.97461 28.8508 0 22.7143 0H11.1111C4.97461 0 0 4.97461 0 11.1111V38.8889C0 45.0254 4.97462 50 11.1111 50H29.9365H33.8254V46.1111H29.9365H16.1018H11.1111C7.12239 46.1111 3.88889 42.8776 3.88889 38.8889V11.1111C3.88889 7.12239 7.12239 3.88889 11.1111 3.88889Z" fill="#0A1931"/>
<path fill-rule="evenodd" clip-rule="evenodd" d="M33.8291 9.44446V40.2442C33.8291 43.2428 36.0701 45.7683 39.0474 46.1249L38.5848 49.9862C33.6526 49.3954 29.9402 45.2116 29.9402 40.2442V9.44446H33.8291Z" fill="#0A1931"/>
<path d="M7.02502 15.2777C7.02502 14.5107 7.64685 13.8889 8.41391 13.8889H25.3214C26.0885 13.8889 26.7103 14.5107 26.7103 15.2777V16.3889C26.7103 17.1559 26.0885 17.7777 25.3214 17.7777H8.41391C7.64685 17.7777 7.02502 17.1559 7.02502 16.3889V15.2777Z" fill="#0A1931"/>
<path d="M7.02502 15.2777C7.02502 14.5107 7.64685 13.8889 8.41391 13.8889H25.3214C26.0885 13.8889 26.7103 14.5107 26.7103 15.2777V16.3889C26.7103 17.1559 26.0885 17.7777 25.3214 17.7777H8.41391C7.64685 17.7777 7.02502 17.1559 7.02502 16.3889V15.2777Z" fill="#0A1931"/>
<path d="M7.02502 15.2777C7.02502 14.5107 7.64685 13.8889 8.41391 13.8889H25.3214C26.0885 13.8889 26.7103 14.5107 26.7103 15.2777V16.3889C26.7103 17.1559 26.0885 17.7777 25.3214 17.7777H8.41391C7.64685 17.7777 7.02502 17.1559 7.02502 16.3889V15.2777Z" fill="#185ADB"/>
<path d="M7.02502 24.7222C7.02502 23.9551 7.64685 23.3333 8.41391 23.3333H21.7171C22.4841 23.3333 23.106 23.9551 23.106 24.7222V25.8333C23.106 26.6004 22.4841 27.2222 21.7171 27.2222H8.41391C7.64685 27.2222 7.02502 26.6004 7.02502 25.8333V24.7222Z" fill="#0A1931"/>
<path d="M7.02502 24.7222C7.02502 23.9551 7.64685 23.3333 8.41391 23.3333H21.7171C22.4841 23.3333 23.106 23.9551 23.106 24.7222V25.8333C23.106 26.6004 22.4841 27.2222 21.7171 27.2222H8.41391C7.64685 27.2222 7.02502 26.6004 7.02502 25.8333V24.7222Z" fill="#0A1931"/>
<path d="M7.02502 24.7222C7.02502 23.9551 7.64685 23.3333 8.41391 23.3333H21.7171C22.4841 23.3333 23.106 23.9551 23.106 24.7222V25.8333C23.106 26.6004 22.4841 27.2222 21.7171 27.2222H8.41391C7.64685 27.2222 7.02502 26.6004 7.02502 25.8333V24.7222Z" fill="#0A1931"/>
<path d="M7.02502 34.1667C7.02502 33.3996 7.64685 32.7778 8.41391 32.7778H15.3402C16.1072 32.7778 16.729 33.3996 16.729 34.1667V35.2778C16.729 36.0448 16.1072 36.6667 15.3402 36.6667H8.41391C7.64685 36.6667 7.02502 36.0448 7.02502 35.2778V34.1667Z" fill="#0A1931"/>
<path d="M7.02502 34.1667C7.02502 33.3996 7.64685 32.7778 8.41391 32.7778H15.3402C16.1072 32.7778 16.729 33.3996 16.729 34.1667V35.2778C16.729 36.0448 16.1072 36.6667 15.3402 36.6667H8.41391C7.64685 36.6667 7.02502 36.0448 7.02502 35.2778V34.1667Z" fill="#0A1931"/>
<path d="M7.02502 34.1667C7.02502 33.3996 7.64685 32.7778 8.41391 32.7778H15.3402C16.1072 32.7778 16.729 33.3996 16.729 34.1667V35.2778C16.729 36.0448 16.1072 36.6667 15.3402 36.6667H8.41391C7.64685 36.6667 7.02502 36.0448 7.02502 35.2778V34.1667Z" fill="#0A1931"/>
</svg>
