<svg width="80" height="80" viewBox="0 0 80 80" fill="none" xmlns="http://www.w3.org/2000/svg">
<rect width="80" height="80" rx="10" fill="#DFEAFF"/>
<path fill-rule="evenodd" clip-rule="evenodd" d="M42.1976 25.9266C43.0982 26.5173 43.3495 27.7262 42.7588 28.6268L39.7562 33.2048H45.1146C45.8505 33.2048 46.5237 33.6191 46.8554 34.276C47.187 34.9329 47.1207 35.7206 46.6838 36.3128L41.7007 43.0663C41.0613 43.9329 39.8403 44.1171 38.9737 43.4777C38.107 42.8382 37.9229 41.6173 38.5623 40.7506L41.2522 37.1051H36.1451C35.4285 37.1051 34.7697 36.7121 34.4292 36.0816C34.0887 35.4511 34.1214 34.6846 34.5144 34.0855L39.4974 26.4878C40.0881 25.5872 41.297 25.3359 42.1976 25.9266Z" fill="#4E8AFF"/>
<path fill-rule="evenodd" clip-rule="evenodd" d="M29.8986 52.7057L31.38 55.6686H48.0859L49.5673 52.7057H29.8986ZM27.194 48.8054C25.5372 48.8054 24.4596 50.549 25.2006 52.0308L28.3536 58.3368C28.7311 59.0919 29.5028 59.5688 30.347 59.5688H49.1189C49.9631 59.5688 50.7348 59.0919 51.1123 58.3368L54.2653 52.0308C55.0063 50.549 53.9287 48.8054 52.2719 48.8054H27.194Z" fill="#4E8AFF"/>
<path fill-rule="evenodd" clip-rule="evenodd" d="M30.9724 56.5376C30.8541 56.1773 31.1226 55.8066 31.5018 55.8066H48.0713C48.4506 55.8066 48.719 56.1773 48.6007 56.5376L46.3261 63.4665C46.0257 64.3815 45.1716 65 44.2086 65H35.3646C34.4015 65 33.5474 64.3815 33.2471 63.4665L30.9724 56.5376ZM36.1179 59.7069L36.5751 61.0998H42.998L43.4553 59.7069H36.1179Z" fill="#4E8AFF"/>
<path d="M25.6023 45.8394C26.1574 45.2661 26.2427 44.3761 25.8188 43.7C24.2162 41.1445 23.2888 38.1167 23.2888 34.8709C23.2888 25.7256 30.6511 18.3118 39.7329 18.3118C48.8147 18.3118 56.1769 25.7256 56.1769 34.8709C56.1769 38.1167 55.2495 41.1445 53.647 43.7C53.2231 44.3761 53.3084 45.2661 53.8634 45.8394C54.5507 46.5494 55.7277 46.5526 56.2654 45.7236C58.2893 42.6036 59.4658 38.8756 59.4658 34.8709C59.4658 23.8965 50.631 15 39.7329 15C28.8347 15 20 23.8965 20 34.8709C20 38.8756 21.1765 42.6036 23.2003 45.7236C23.7381 46.5526 24.9151 46.5494 25.6023 45.8394Z" fill="#4E8AFF"/>
</svg>
