<svg width="80" height="80" viewBox="0 0 80 80" fill="none" xmlns="http://www.w3.org/2000/svg">
<rect width="80" height="80" rx="10" fill="#FFDFDF"/>
<path fill-rule="evenodd" clip-rule="evenodd" d="M53.8889 18.8889H26.1111C22.1224 18.8889 18.8889 22.1224 18.8889 26.1111V53.8889C18.8889 57.8776 22.1224 61.1111 26.1111 61.1111H53.8889C57.8776 61.1111 61.1111 57.8776 61.1111 53.8889V26.1111C61.1111 22.1224 57.8776 18.8889 53.8889 18.8889ZM26.1111 15C19.9746 15 15 19.9746 15 26.1111V53.8889C15 60.0254 19.9746 65 26.1111 65H53.8889C60.0254 65 65 60.0254 65 53.8889V26.1111C65 19.9746 60.0254 15 53.8889 15H26.1111Z" fill="#FF4E4E"/>
<path d="M52.1134 31.3575C52.1134 30.2947 53.0365 29.4331 54.1753 29.4331C55.314 29.4331 56.2371 30.2947 56.2371 31.3575V52.251C56.2371 53.3138 55.314 54.1754 54.1753 54.1754C53.0365 54.1754 52.1134 53.3138 52.1134 52.251V31.3575Z" fill="#FF4E4E"/>
<path d="M33.5566 36.5265C33.5566 35.4556 34.3644 34.5875 35.3608 34.5875C36.3572 34.5875 37.1649 35.4556 37.1649 36.5265V52.2362C37.1649 53.307 36.3572 54.1752 35.3608 54.1752C34.3644 54.1752 33.5566 53.307 33.5566 52.2362V36.5265Z" fill="#FF4E4E"/>
<path d="M42.835 42.152C42.835 41.1058 43.7581 40.2577 44.8969 40.2577C46.0356 40.2577 46.9587 41.1058 46.9587 42.152V52.2809C46.9587 53.3271 46.0356 54.1752 44.8969 54.1752C43.7581 54.1752 42.835 53.3271 42.835 52.2809V42.152Z" fill="#FF4E4E"/>
<path d="M23.7629 47.3208C23.7629 46.2669 24.686 45.4125 25.8247 45.4125C26.9635 45.4125 27.8866 46.2669 27.8866 47.3208V52.267C27.8866 53.321 26.9635 54.1754 25.8247 54.1754C24.686 54.1754 23.7629 53.321 23.7629 52.267V47.3208Z" fill="#FF4E4E"/>
</svg>
