<svg width="50" height="50" viewBox="0 0 50 50" fill="none" xmlns="http://www.w3.org/2000/svg">
<path fill-rule="evenodd" clip-rule="evenodd" d="M30.5185 -8.41999e-08C31.5805 -3.76976e-08 32.4415 0.870557 32.4415 1.94444L32.4415 48.0556C32.4415 49.1294 31.5805 50 30.5185 50C29.4564 50 28.5954 49.1294 28.5954 48.0556L28.5954 1.94444C28.5954 0.870557 29.4564 -1.30702e-07 30.5185 -8.41999e-08Z" fill="#0A1931"/>
<path fill-rule="evenodd" clip-rule="evenodd" d="M10.8696 14.2141C11.9778 14.2141 12.8763 15.0836 12.8763 16.1563L12.8763 33.6765C12.8762 34.7491 11.9778 35.6187 10.8696 35.6187C9.7613 35.6187 8.86287 34.7491 8.86287 33.6765L8.86287 16.1563C8.86287 15.0836 9.7613 14.2141 10.8696 14.2141Z" fill="#185ADB"/>
<path fill-rule="evenodd" clip-rule="evenodd" d="M25 5.3512H8.33333C3.73096 5.3512 0 9.06741 0 13.6516V36.1812C0 40.7654 3.73096 44.4816 8.33333 44.4816H25V40.6081H8.33333C5.87874 40.6081 3.88889 38.6261 3.88889 36.1812V13.6516C3.88889 11.2067 5.87873 9.22471 8.33333 9.22471H25V5.3512ZM28.5714 40.6081H41.6667C44.1213 40.6081 46.1111 38.6261 46.1111 36.1812V13.6516C46.1111 11.2067 44.1213 9.22471 41.6667 9.22471H28.5714V5.3512H41.6667C46.269 5.3512 50 9.06741 50 13.6516V36.1812C50 40.7654 46.269 44.4816 41.6667 44.4816H28.5714V40.6081Z" fill="#0A1931"/>
</svg>
